<svg width="119" height="101" viewBox="0 0 119 101" fill="none" xmlns="http://www.w3.org/2000/svg">
<g clip-path="url(#clip0_2_10)">
<path d="M9.51998 61.6473L9.82371 61.8999C9.49467 59.6261 9.31749 57.1501 9.97558 54.9773C10.9627 51.4906 12.2029 48.1051 12.8357 44.4922C13.3419 41.6877 13.9241 38.5295 13.5951 35.8262C13.2154 37.2915 12.8357 38.7317 12.0258 39.9949C8.96314 44.7195 5.82457 50.2779 7.97601 56.291C7.92538 56.3668 7.84945 56.4426 7.77352 56.3921C6.91294 54.3961 6.71045 52.1475 6.15361 50.0253C4.66026 44.3911 0.332077 39.6665 1.59763 33.148C0.914231 34.5629 0.66112 36.1546 0.306766 37.6958C-0.452565 41.6877 0.306766 45.907 1.39514 49.5957C2.73662 54.1688 7.21667 57.4532 9.51998 61.6473Z" fill="black"/>
<path d="M8.35567 32.3901C9.36811 30.3183 11.0133 28.3476 12.9876 26.8823C17.3411 23.5978 22.0996 19.3532 22.1755 13.7948C20.7075 17.7868 16.3286 19.4543 13.4179 22.1829C11.8739 23.623 10.6843 25.3663 10.0009 27.1854L9.89964 27.1096C10.254 25.4927 10.9374 24.0525 11.4183 22.4861C12.6839 18.2415 12.4561 13.1632 16.6071 10.3082C14.4809 10.8641 12.6839 12.2284 11.0893 13.997C7.7229 17.711 8.02663 23.1935 8.45692 28.0445C8.60878 29.5604 8.53285 30.8489 8.35567 32.3901Z" fill="black"/>
<path d="M13.4179 20.288C15.7465 18.1152 18.4295 16.4982 20.4037 13.9212C22.7576 10.8135 24.8078 7.32692 27.8958 4.6488C23.7195 6.26578 19.2141 7.93329 16.5058 12.2284C14.9112 14.7297 14.6581 17.6857 13.4179 20.288Z" fill="black"/>
<path d="M15.1643 31.2784C16.1768 29.2319 16.8095 26.9075 17.088 24.6589C16.7083 25.619 16.1262 26.5033 15.3162 27.2612C11.9245 30.4699 7.95069 33.6028 7.19136 38.1506C7.09012 38.8075 7.01418 39.4644 6.83701 40.096C6.68514 40.1718 6.68514 39.9949 6.63452 39.9444L7.06481 34.3355C7.46978 28.853 4.58433 22.764 7.7482 17.9383C7.64696 17.9131 7.57103 18.0141 7.49509 18.0394C4.60964 21.7029 2.686 25.7453 2.686 30.6721C2.686 36.761 6.20423 41.0308 6.63452 46.7408C7.54572 40.7782 12.5573 36.5336 15.1643 31.2784Z" fill="black"/>
<path d="M8.45692 68.6963C11.722 71.2734 15.6199 73.2693 18.6066 75.5432C18.0245 74.0525 17.0627 72.6882 16.683 71.147C14.9365 64.098 15.8984 55.9121 12.8863 49.3936C13.4432 53.1076 11.9752 56.3921 11.6461 59.9292C11.3677 62.8348 11.8739 65.6645 13.0129 68.0899C13.3419 68.8226 13.9494 69.4543 14.1266 70.2122C13.0382 69.2269 12.2536 67.9889 11.5196 66.7761C8.00132 61.0914 0.63581 57.4027 0.12959 50.48C-0.12352 53.5624 0.154901 56.8216 1.16734 59.5503C2.55945 63.2895 5.29304 66.195 8.45692 68.6963Z" fill="black"/>
<path d="M52.8525 87.3673C47.1575 87.3673 42.0446 90.1213 37.0584 92.193C32.5277 94.0626 26.529 93.7089 22.5045 90.9297C24.4788 93.4057 27.1365 94.9469 29.8954 95.9828C34.9829 98.004 40.931 96.4628 45.2845 93.6837C48.3977 91.6877 51.0807 88.858 54.8014 88.858C60.8001 88.858 67.1026 94.9975 72.4938 100.556C73.3291 99.8737 74.215 99.1662 74.8984 98.383C69.254 93.0268 61.281 87.3673 52.8525 87.3673Z" fill="black"/>
<path d="M42.6774 87.9737C43.5633 87.7463 44.6264 87.8221 45.4363 87.5189C42.0446 86.8368 38.7795 85.8009 36.1472 83.4007C32.3758 79.9646 29.0348 76.3012 25.0103 73.623C28.1742 77.8676 29.0601 84.0323 34.831 86.1799C35.8434 86.5589 37.0331 86.6347 37.9189 87.1905C36.8053 87.3674 35.8434 87.0136 34.8057 86.7863C27.3642 85.1945 18.3029 87.241 12.7345 80.9247C14.8353 85.0682 19.1888 88.3274 23.3904 89.6918C29.8447 91.8646 36.6028 89.4644 42.6774 87.9737Z" fill="black"/>
<path d="M30.2244 84.8661C25.39 80.9752 24.656 75.1389 22.5045 70.0354C21.163 66.8519 18.9863 63.997 16.6577 61.2178C19.2141 66.3214 18.1004 72.8903 21.4162 77.6907C22.4539 79.2067 23.8966 80.6468 25.2381 81.8342L25.1875 81.91C23.9726 81.3542 22.8842 80.4952 21.7705 79.5856C15.9743 74.76 7.24199 74.1536 3.77438 66.2961C4.71088 72.0566 9.29218 77.1602 14.2531 80.3941C18.961 83.4765 25.0103 83.148 30.2244 84.8661Z" fill="black"/>
<path d="M97.577 13.9212C99.5513 16.5235 102.234 18.1152 104.563 20.288C103.323 17.6857 103.07 14.7297 101.5 12.2284C98.792 7.93329 94.2866 6.26578 90.1103 4.6488C93.1476 7.32692 95.1978 10.7883 97.577 13.9212Z" fill="black"/>
<path d="M106.562 22.4861C107.018 24.0273 107.701 25.4927 108.081 27.1096L107.98 27.1854C107.296 25.3663 106.107 23.623 104.563 22.1829C101.652 19.429 97.2733 17.7868 95.8306 13.7696C95.9065 19.3532 100.665 23.5978 105.018 26.857C106.967 28.3224 108.638 30.2931 109.65 32.3648C109.473 30.8236 109.397 29.5351 109.549 28.0445C110.005 23.1683 110.283 17.711 106.942 13.997C105.348 12.2284 103.55 10.8388 101.424 10.3082C105.525 13.1632 105.297 18.2415 106.562 22.4861Z" fill="black"/>
<path d="M110.916 34.3103L111.346 39.9192C111.296 39.9697 111.296 40.1213 111.144 40.0708C110.967 39.4391 110.891 38.7822 110.789 38.1253C110.03 33.6028 106.031 30.4447 102.665 27.236C101.855 26.478 101.272 25.5938 100.893 24.6337C101.171 26.8823 101.804 29.2067 102.816 31.2532C105.423 36.5084 110.435 40.7529 111.346 46.7408C111.777 41.0056 115.295 36.761 115.295 30.6721C115.295 25.7453 113.371 21.7029 110.486 18.0394C110.41 17.9889 110.334 17.9131 110.233 17.9384C113.396 22.764 110.486 28.853 110.916 34.3103Z" fill="black"/>
<path d="M111.827 50C111.27 52.1223 111.068 54.3962 110.207 56.3669C110.131 56.4174 110.055 56.3163 110.005 56.2658C112.156 50.2527 109.018 44.7196 105.955 39.9697C105.145 38.7317 104.765 37.2663 104.386 35.8009C104.057 38.5296 104.639 41.6625 105.145 44.4669C105.803 48.0799 107.018 51.4654 108.005 54.952C108.663 57.1248 108.486 59.5756 108.157 61.8747L108.461 61.622C110.739 57.428 115.244 54.1435 116.611 49.5452C117.699 45.8818 118.459 41.6372 117.699 37.6453C117.345 36.1041 117.067 34.5124 116.408 33.0975C117.649 39.6412 113.321 44.3659 111.827 50Z" fill="black"/>
<path d="M80.8971 92.193C75.8855 90.1213 70.798 87.3674 65.103 87.3674C56.6997 87.3674 48.7014 93.0521 43.1077 98.383C43.7911 99.1663 44.677 99.8989 45.5123 100.556C50.8782 95.0228 57.2059 88.858 63.2047 88.858C66.9254 88.858 69.6084 91.6877 72.7216 93.6837C77.0498 96.4376 82.9979 98.0041 88.1107 95.9828C90.8443 94.947 93.502 93.4058 95.5015 90.9298C91.4518 93.6837 85.4277 94.0627 80.8971 92.193Z" fill="black"/>
<path d="M106.487 66.7256C105.727 67.9384 104.968 69.2016 103.879 70.1617C104.057 69.429 104.664 68.7721 104.993 68.0394C106.132 65.5887 106.638 62.7842 106.36 59.8787C106.006 56.3416 104.538 53.0571 105.12 49.3431C102.082 55.8616 103.07 64.0475 101.323 71.0965C100.943 72.663 99.9816 74.0273 99.3994 75.4927C102.386 73.2188 106.284 71.2228 109.549 68.6458C112.713 66.1698 115.447 63.239 116.889 59.4492C117.927 56.7206 118.18 53.4613 117.927 50.379C117.396 57.3522 110.005 61.0409 106.487 66.7256Z" fill="black"/>
<path d="M96.1596 79.5856C95.0459 80.4952 93.9575 81.3542 92.7426 81.9101L92.692 81.8343C94.0335 80.6215 95.4762 79.1814 96.514 77.6907C99.8297 72.8903 98.716 66.2961 101.272 61.2178C98.9438 63.997 96.7671 66.8519 95.4256 70.0354C93.2742 75.139 92.5401 80.9752 87.7057 84.8661C92.9198 83.148 98.9691 83.4765 103.652 80.4194C108.587 77.1854 113.169 72.0819 114.13 66.3214C110.688 74.1536 101.981 74.76 96.1596 79.5856Z" fill="black"/>
<path d="M83.1751 86.8115C82.1373 87.0389 81.1755 87.3673 80.0618 87.2158C80.9477 86.6599 82.112 86.5841 83.1497 86.2051C88.9207 84.0323 89.8065 77.8676 92.9704 73.6483C88.946 76.3264 85.6049 79.9899 81.8336 83.426C79.2012 85.8262 75.9361 86.8368 72.5444 87.5442C73.3544 87.8474 74.4174 87.7716 75.3033 87.999C81.4033 89.5149 88.136 91.8898 94.6156 89.7423C98.792 88.3527 103.145 85.0935 105.272 80.9752C99.6779 87.2663 90.5912 85.2451 83.1751 86.8115Z" fill="black"/>
<path d="M58.9777 0.555847C35.9447 0.555847 17.2145 19.2522 17.2145 42.2436C17.2145 65.235 35.9447 83.9313 58.9777 83.9313C82.0107 83.9313 100.741 65.235 100.741 42.2436C100.741 19.2522 82.0107 0.555847 58.9777 0.555847ZM58.9777 50.2021C54.5736 50.2021 51.0047 46.6397 51.0047 42.2436C51.0047 37.8474 54.5736 34.285 58.9777 34.285C63.3818 34.285 66.9507 37.8474 66.9507 42.2436C66.9507 46.6397 63.3818 50.2021 58.9777 50.2021ZM64.9764 35.5483C63.5084 34.2345 61.6101 33.4007 59.5092 33.2744V26.4528C63.4831 26.5791 67.1026 28.1708 69.8108 30.7226L64.9764 35.5483ZM58.4715 33.2744C56.3707 33.4007 54.4724 34.2345 53.0043 35.5483L48.1699 30.7226C50.8782 28.1708 54.4977 26.5791 58.4715 26.4528V33.2744ZM52.2956 36.281C50.9794 37.7464 50.1442 39.6412 50.0176 41.7383H43.1836C43.3102 37.7716 44.9048 34.1587 47.4612 31.4553L52.2956 36.281ZM50.0176 42.7489C50.1442 44.8459 50.9794 46.7408 52.2956 48.2062L47.4612 53.0318C44.9048 50.3285 43.3102 46.7155 43.1836 42.7489H50.0176ZM53.0043 48.9389C54.4724 50.2527 56.3707 51.0864 58.4715 51.2127V58.0344C54.4977 57.9081 50.8782 56.3163 48.1699 53.7645L53.0043 48.9389ZM59.4839 51.1875C61.5847 51.0612 63.4831 50.2274 64.9511 48.9136L69.7855 53.7393C67.0772 56.2911 63.4578 57.8828 59.4839 58.0091V51.1875ZM65.6851 48.2062C67.0013 46.7408 67.8366 44.8459 67.9631 42.7489H74.7971C74.6706 46.7155 73.076 50.3285 70.5195 53.0318L65.6851 48.2062ZM67.9631 41.7383C67.8366 39.6412 67.0013 37.7464 65.6851 36.281L70.5195 31.4553C73.076 34.1587 74.6706 37.7716 74.7971 41.7383H67.9631ZM70.5195 30.0152C67.6088 27.2865 63.7615 25.5685 59.4839 25.4422V17.8626C65.837 17.9889 71.6079 20.566 75.8855 24.6589L70.5195 30.0152ZM58.4715 25.4422C54.2192 25.5685 50.3467 27.2865 47.4359 30.0152L42.07 24.6589C46.3475 20.566 52.1184 17.9889 58.4715 17.8626V25.4422ZM46.7272 30.7226C43.9936 33.6281 42.2724 37.4684 42.1459 41.7383H34.5526C34.6791 35.3967 37.2609 29.6362 41.3612 25.3664L46.7272 30.7226ZM42.1712 42.7489C42.2978 46.9934 44.0189 50.859 46.7525 53.7645L41.3612 59.1208C37.2609 54.851 34.6791 49.0905 34.5526 42.7489H42.1712ZM47.4612 54.472C50.372 57.2006 54.2192 58.9187 58.4968 59.045V66.6246C52.1437 66.4983 46.3728 63.9212 42.0953 59.8282L47.4612 54.472ZM59.4839 59.0197C63.7362 58.8934 67.6088 57.1754 70.5195 54.4467L75.8855 59.8029C71.6079 63.8959 65.837 66.473 59.4839 66.5993V59.0197ZM71.2282 53.7393C73.9618 50.8338 75.683 46.9935 75.8095 42.7236H83.4028C83.2763 49.0652 80.6946 54.8257 76.5942 59.0955L71.2282 53.7393ZM75.8095 41.7383C75.683 37.4937 73.9618 33.6281 71.2282 30.7226L76.5942 25.3664C80.6946 29.6362 83.2763 35.3967 83.4028 41.7383H75.8095ZM76.5942 23.9515C72.1394 19.6817 66.1154 17.0036 59.4839 16.8772V10.1567C67.9631 10.283 75.6577 13.7191 81.3273 19.2016L76.5942 23.9515ZM58.4715 16.852C51.84 16.9783 45.816 19.6564 41.3612 23.9262L36.6281 19.2016C42.2978 13.7191 49.9923 10.283 58.4715 10.1567V16.852ZM40.6525 24.6589C36.375 29.1056 33.692 35.1188 33.5655 41.7383H26.858C26.9846 33.2744 30.4269 25.5937 35.9194 19.9343L40.6525 24.6589ZM33.5655 42.7489C33.692 49.3684 36.375 55.3815 40.6525 59.8282L35.9194 64.5528C30.4269 58.8934 26.9846 51.2127 26.858 42.7489H33.5655ZM41.3612 60.5356C45.816 64.8055 51.84 67.4836 58.4715 67.6099V74.3052C49.9923 74.1789 42.2978 70.7428 36.6281 65.2602L41.3612 60.5356ZM59.4839 67.6352C66.1154 67.5089 72.1394 64.8307 76.5942 60.5609L81.3273 65.2855C75.6577 70.7681 67.9631 74.2042 59.4839 74.3305V67.6352ZM77.3282 59.8282C81.6058 55.3815 84.2887 49.3684 84.4153 42.7489H91.1227C90.9962 51.2127 87.5539 58.8934 82.0614 64.5528L77.3282 59.8282ZM84.4153 41.7383C84.2887 35.1188 81.6058 29.1056 77.3282 24.6589L82.0614 19.9343C87.5539 25.5937 90.9962 33.2744 91.1227 41.7383H84.4153ZM82.0614 18.4942C76.1892 12.8095 68.2669 9.27237 59.4839 9.14605V1.56646C70.3424 1.69279 80.1884 6.08895 87.4273 13.138L82.0614 18.4942ZM58.4715 9.14605C49.7139 9.27237 41.7662 12.8095 35.8941 18.4942L30.5534 13.138C37.7924 6.08895 47.6384 1.69279 58.4968 1.56646V9.14605H58.4715ZM35.1854 19.2016C29.4904 25.0632 25.9468 32.9712 25.8203 41.7383H18.227C18.3535 30.8995 22.7576 21.0713 29.8194 13.8454L35.1854 19.2016ZM25.8456 42.7489C25.9721 51.4907 29.5157 59.424 35.2107 65.2855L29.8194 70.6165C22.7576 63.4159 18.3788 53.5877 18.2523 42.7489H25.8456ZM35.9194 65.9929C41.7915 71.6776 49.7139 75.2148 58.4968 75.3411V82.9207C47.6384 82.7944 37.7924 78.3982 30.5534 71.3492L35.9194 65.9929ZM59.4839 75.3411C68.2415 75.2148 76.1892 71.6776 82.0614 65.9929L87.4273 71.3492C80.1884 78.3982 70.3424 82.7944 59.4839 82.9207V75.3411ZM82.7701 65.2602C88.465 59.3987 92.0086 51.4907 92.1351 42.7236H99.7285C99.6019 53.5624 95.1978 63.3906 88.136 70.6165L82.7701 65.2602ZM92.1351 41.7383C92.0086 32.9965 88.465 25.0632 82.7701 19.2016L88.136 13.8454C95.1978 21.0713 99.6019 30.8995 99.7285 41.7383H92.1351Z" fill="black"/>
<path d="M61.3823 32.5922L61.1292 32.6175V32.9207L61.3823 32.8954V32.5922Z" fill="black"/>
<path d="M61.0785 32.188H60.7495V32.4406H61.0785V32.188Z" fill="black"/>
<path d="M60.142 32.1122L60.4458 32.1627L60.4711 31.9101L60.1674 31.8595L60.142 32.1122Z" fill="black"/>
<path d="M59.8889 32.0111L59.6105 31.9859L59.6358 31.7332L59.9395 31.7585L59.8889 32.0111Z" fill="black"/>
<path d="M57.7881 31.6827H57.4591V31.9353H57.7881V31.6827Z" fill="black"/>
<path d="M56.725 32.188L57.0288 32.2385L57.0541 31.9859L56.7757 31.9353L56.725 32.188Z" fill="black"/>
<path d="M56.7757 32.5922L56.4213 32.4912L56.4972 32.2385L56.8263 32.3396L56.7757 32.5922Z" fill="black"/>
<path d="M56.1682 32.8954L56.1176 32.6428L56.3707 32.5922L56.4213 32.8449L56.1682 32.8954Z" fill="black"/>
<path d="M23.1373 59.045V59.6008H23.3904L23.3398 58.9692L23.0108 58.8429V58.6155H22.8083V59.045H23.1373Z" fill="black"/>
<path d="M24.9091 60.5862L25.5419 60.8893L25.7443 61.4704L26.0481 61.6978L26.3265 62.3295L26.1746 62.6326L25.6937 62.2031L25.3647 61.7231L25.1875 61.3441L24.9091 60.5862Z" fill="black"/>
<path d="M35.5397 73.6988L35.7675 74.2547L35.4638 74.4315L35.2866 74.1789L34.8816 74.0526L34.831 73.6736L34.502 73.1683L35.0082 73.2441L35.5397 73.6988Z" fill="black"/>
<path d="M57.6869 35.3461H57.2313L57.1553 34.4113L57.4084 34.2345V33.7544H55.9404L55.8898 33.2744L56.0923 33.1481L55.7632 33.0217L55.5101 33.3502L55.4342 33.7292L55.0039 33.805V34.0071H54.7002V34.5629L53.5105 35.5483L51.1566 35.4725C50.9794 35.8514 50.5745 35.4219 50.5745 35.4219C50.4985 35.1693 49.8911 35.4219 49.8911 35.4219C49.8911 35.902 49.0811 35.2198 49.0811 35.2198L47.6131 34.1587C46.7778 33.4007 45.5123 34.3608 45.4616 34.5882C45.5123 35.1945 44.4998 34.7145 44.4998 34.7145C44.4998 34.7145 43.6646 34.4619 43.538 34.7903C43.4114 35.1187 42.8546 35.043 42.8546 35.043L42.7787 35.2198L42.3484 35.2956L42.2724 35.5483L41.7662 35.6241L43.0318 35.5735C43.3608 35.523 42.9052 36.3062 42.7027 36.2557L42.1206 36.3062L41.9181 36.5083H41.3612L41.1081 36.8621L40.2982 36.8115C40.2982 36.8115 39.8426 37.1905 39.8679 37.3168C39.9185 37.4432 39.792 37.8221 39.6654 37.8221C39.5389 37.8221 39.2857 38.2011 39.3617 38.3274C39.4376 38.4538 39.1086 38.8833 39.1086 38.8833L39.0326 39.3128L38.7795 39.3886V40.5508L38.2733 40.9045V41.4098L37.514 42.2183L37.5899 42.9005L36.9571 43.5826L37.0331 44.2648L36.6534 44.3911L36.5775 44.6943L36.4003 45.5786L36.8306 45.6291C37.0331 45.5533 37.0078 46.1849 36.8306 46.2607C36.6534 46.3365 36.1978 46.5134 36.4509 46.6903C36.704 46.8671 35.7675 46.8166 35.7675 46.5639C35.7675 46.3113 35.2613 46.0839 35.1347 46.1849C35.0082 46.2607 34.8057 45.806 34.8057 45.806C34.3501 45.3259 32.9074 45.8565 32.9074 45.8565L32.7049 46.5387C32.2493 46.6145 31.9455 47.3977 31.9455 47.3977C31.5659 47.524 31.2621 48.004 31.3887 48.1304C31.5153 48.2567 31.1862 48.3072 31.1862 48.3072V49.242L30.9837 49.5452L31.0343 50.5558C31.2875 50.5558 31.2368 51.0359 31.2368 51.0359C30.8065 51.0864 30.9078 51.6423 30.9078 51.6423L30.0219 51.9454L29.8447 52.1981L28.7564 52.1476L28.4526 52.4507L28.1489 52.1476H26.0481L25.9721 51.9454L25.5419 51.8696L25.4912 51.3896L24.8585 51.4401L24.7319 51.6928L24.0485 51.7433C24.0991 52.1728 23.3651 52.8045 23.2892 52.6276C23.2132 52.4507 22.7323 51.996 22.9601 51.8949C23.1626 51.8191 23.7195 51.718 23.7195 51.718V51.4149L22.1502 51.3643L21.973 51.617L21.3402 51.6675V52.3497L21.0365 52.4255C20.834 52.5518 21.0871 53.0318 21.0871 53.0318C21.3908 53.335 21.0365 53.7898 21.0365 53.7898C20.7834 54.0425 21.239 54.5225 21.239 54.5225C21.568 54.5983 21.0365 54.8509 21.0365 54.8509C21.1124 55.2805 21.3655 55.4068 21.3655 55.4068C21.1124 55.8363 21.5427 56.0384 21.5427 56.0384L21.5933 56.7711L21.8971 56.948V57.428L22.0742 57.7312H22.7576L22.707 56.67C22.1249 55.9879 23.2132 55.811 23.2639 56.0637C23.3145 56.3163 23.7701 56.4427 23.7701 56.4427C23.846 57.0743 24.58 57.4533 24.7825 56.8216C24.985 56.19 25.1622 56.569 25.2887 56.8722C25.4153 57.1754 26.2253 57.908 26.2253 57.908H26.858L26.934 58.5144C27.6427 58.4639 27.8705 58.5649 28.1489 59.525C28.4526 60.5104 29.2373 60.763 29.2373 60.763L29.8194 60.7125C29.8194 60.2072 30.4016 60.7883 30.4016 61.0662C30.4016 61.3189 31.5406 62.3042 31.5406 62.3042L32.6796 62.5569L33.7426 63.4159L34.5526 63.3401H34.8816C35.0841 62.6074 36.0966 63.3906 36.1978 63.6433C36.2737 63.8959 36.9571 64.3254 37.0331 64.1233C37.109 63.9212 37.5899 64.0475 37.6658 64.6791C37.7418 65.3108 38.0455 65.1844 38.0455 65.1844L40.4501 65.1339L41.2853 64.4012L43.4368 64.3507C44.5251 64.3002 43.867 62.8095 43.6392 62.8095C43.2596 62.5063 43.7658 61.2683 43.7658 61.2683L40.7032 58.4133C39.9945 58.4133 40.6272 57.3775 40.6272 57.3775C41.1841 57.0238 40.5007 56.4932 40.5007 56.4932C40.5766 55.9879 40.1969 55.3815 40.1969 55.3815C39.4376 54.8762 39.6401 53.8909 39.6401 53.8909V53.2087C39.0073 52.6023 39.8932 52.5265 39.8932 52.5265C40.1969 52.0212 39.6907 51.6423 39.6907 51.6423L39.6401 51.0864L38.9567 51.0106L38.8808 49.0147L37.3621 46.8418C37.0584 46.766 37.2862 46.2355 37.2862 46.2355C37.6658 46.0334 37.2102 45.5028 37.2102 45.5028L37.1596 44.568L38.0455 44.4922L38.248 44.1637H38.6783L38.6277 43.052C38.8301 42.4962 39.3364 42.7994 39.3364 42.7994L39.9185 42.8499L40.2476 42.2183L40.3235 41.713L39.8679 41.6625C39.3617 41.3593 39.6148 40.2476 39.6148 40.2476C40.4247 39.0601 41.3359 39.7423 41.3359 39.7423L41.9181 39.6918C42.804 40.2981 41.994 41.3845 41.994 41.3845C41.8168 41.6372 41.9181 42.4457 41.9181 42.4457L42.1206 43.81L41.5637 44.2901C41.1081 44.5427 41.1081 45.1491 41.6144 45.2754C41.9434 45.3259 41.8168 46.1344 41.3106 45.5786C40.5513 45.5786 41.7409 46.2607 41.3866 46.0839C42.1459 46.4629 41.9687 45.7554 41.9687 45.7554L42.9812 44.9469C43.3608 44.6438 44.0442 45.5786 44.0442 45.7049C44.0442 45.8312 45.7147 45.7554 45.7147 45.7554C46.1703 46.0586 46.3475 46.8166 46.3475 46.8166C46.8031 46.2102 47.7903 46.766 47.0562 47.1198C47.7396 47.5493 47.7396 47.9283 47.7396 47.9283C48.2965 47.7514 48.2965 48.1809 48.2965 48.3072C48.2965 48.4336 48.4736 47.6756 48.4736 47.6756C47.8409 47.1956 49.3089 47.044 48.9039 47.8777L48.6508 48.2567L49.0811 48.5852L49.1317 49.5705C50.0682 49.4947 49.8151 48.3325 49.8151 48.3325L50.2454 48.2567C50.2454 47.8777 50.5492 48.0798 50.5492 48.0798C50.2454 46.6397 51.2326 46.3871 51.2326 46.3871C51.7894 46.2607 51.8147 45.0985 51.8147 45.0985C51.435 44.9217 51.6375 44.3406 52.0678 44.8459C52.4981 45.3512 51.8147 43.81 51.8147 43.81L51.4857 43.5068L51.0301 43.4563L50.9794 42.9763H50.2201L50.0936 43.5826L49.8151 43.7089L49.7392 43.5321L49.6126 44.0121H48.8533L48.8027 43.5068L49.2583 43.3805L49.4355 43.1278L49.562 42.4457H50.1189L50.8276 42.2436C50.8782 41.5109 51.2579 41.6877 51.2579 41.6877L51.511 41.8898L51.8906 42.193L51.9413 42.4457L51.6881 42.572L51.6375 42.9257L51.7641 43.4058H52.0931C52.2197 42.7236 53.1056 42.7236 53.3587 43.1531L53.6118 42.5467C53.0296 42.2436 53.6118 41.7888 53.7637 41.9909C53.9408 42.193 54.3205 41.4351 54.3205 41.4351C54.3205 41.4351 54.6242 41.8141 54.3205 41.3087C54.0168 40.8034 54.523 40.5508 54.523 40.5508C54.4471 40.0455 55.0798 40.1213 55.0798 40.1213L55.1305 39.4391L54.5483 39.3886C54.4217 39.9949 53.9155 39.4644 54.1686 39.3381C54.4217 39.2117 54.6749 38.9591 54.6749 38.9591V38.5296L54.928 38.4538L54.9786 38.0243H55.6114L56.1682 37.7716L56.2948 37.5695L56.8769 37.519L57.7122 36.761L57.6362 36.4325C57.13 36.4325 57.6362 36.0536 57.6362 36.0536L57.6869 35.3461Z" fill="black"/>
<path d="M40.7285 43.7848L39.9691 43.709L40.0198 44.0121H40.2222C40.5513 44.6185 40.2729 46.0586 40.2729 46.0586C40.2729 46.0586 39.7667 46.1092 39.6907 45.8565C39.6148 45.6039 39.387 46.4123 39.5642 46.5387C39.7413 46.665 40.3235 46.5387 40.3741 47.0187C40.4247 47.4987 40.7538 46.7155 40.7538 46.7155L40.7285 43.7848Z" fill="black"/>
<path d="M39.9691 47.2461V48.2567L40.6272 49.1663L40.8803 48.5599L40.9816 48.1809L40.6778 48.0546L40.7285 47.423L40.9816 47.3724L41.0069 47.0692L40.3741 47.4988L39.9691 47.2461Z" fill="black"/>
<path d="M41.0575 50.1011V49.6716L40.7538 49.7221L40.7285 50.0506L41.0575 50.1011Z" fill="black"/>
<path d="M40.6779 52.1476V51.8444L40.3235 51.8949V52.1981L40.6779 52.1476Z" fill="black"/>
<path d="M41.1841 50.8338C41.2853 50.8338 41.3612 50.758 41.3612 50.6569C41.3612 50.5559 41.2853 50.4801 41.1841 50.4801C41.0828 50.4801 41.0069 50.5559 41.0069 50.6569C41.0069 50.758 41.0828 50.8338 41.1841 50.8338Z" fill="black"/>
<path d="M41.4625 51.7181C41.5603 51.7181 41.6397 51.6389 41.6397 51.5412C41.6397 51.4435 41.5603 51.3643 41.4625 51.3643C41.3646 51.3643 41.2853 51.4435 41.2853 51.5412C41.2853 51.6389 41.3646 51.7181 41.4625 51.7181Z" fill="black"/>
<path d="M41.4878 46.8419C41.5857 46.8419 41.665 46.7627 41.665 46.665C41.665 46.5673 41.5857 46.4882 41.4878 46.4882C41.3899 46.4882 41.3106 46.5673 41.3106 46.665C41.3106 46.7627 41.3899 46.8419 41.4878 46.8419Z" fill="black"/>
<path d="M54.9786 40.8793H55.2317L55.2823 41.1572L55.1051 41.3088L55.0292 41.5362L54.7002 41.612L53.9408 42.3446L53.8902 42.6731L53.6877 42.9763L53.4346 43.6079L52.5487 43.6584L52.3715 44.4164L52.4981 45.0733L53.2574 45.3765L53.3334 44.947L53.5865 44.8206L53.6371 44.3911L53.8143 44.088L54.0674 43.7848L54.1433 43.4563L54.5736 43.2037L55.0798 43.1026L55.2823 42.85L55.3582 42.3446L55.4089 41.9657L55.586 41.6877L56.0923 41.4856V40.6771H55.8392L55.7885 40.374L55.3329 40.3234L55.2317 40.5508H55.0292L54.9786 40.8793Z" fill="black"/>
<path d="M56.9528 43.2794V42.6731L56.8769 42.1172L56.2441 41.8141L55.7885 42.2436L55.7126 42.8499V43.2289L55.2823 43.3047L55.2064 44.4669L54.8773 44.5932L54.928 45.0227L54.4724 45.1491L54.0168 45.2754L53.9408 45.8312L53.6118 46.0334L53.4346 46.5387L53.2321 47.7767C53.2321 47.7767 53.6118 48.5094 53.8143 48.1556C54.0168 47.8272 54.3711 47.7767 54.3711 47.7767L54.4977 47.4735L55.6367 47.524C55.7126 47.044 56.2694 47.2208 56.2694 47.4482C56.2694 47.6503 56.6997 47.4987 56.6997 47.4987L57.0035 47.0187H57.4591L57.5097 46.5134L57.7122 46.3871V45.6291C58.3956 45.427 58.2943 44.7701 58.2943 44.7701L58.4715 44.568L58.3956 44.2648C58.0665 44.1385 58.2184 43.8353 58.4462 43.9111C58.6487 43.9869 58.1425 43.5321 58.1425 43.5321C57.8893 43.7342 57.6869 43.2794 57.6869 43.2794H56.9528Z" fill="black"/>
<path d="M57.6362 48.4336C57.5856 48.9389 56.9528 49.1157 56.9528 49.1157L56.4972 48.9894L56.2441 48.7873L56.1935 48.1809L56.5732 48.1304L56.6491 48.383L57.6362 48.4336Z" fill="black"/>
<path d="M59.9142 45.7049C60.0155 46.0839 59.9902 45.0986 60.1673 45.1491C60.3445 45.1996 60.218 44.5427 60.218 44.5427L59.4586 45.0986C59.813 45.1491 59.8636 45.5281 59.9142 45.7049Z" fill="black"/>
<path d="M62.1416 43.4816C62.3188 43.8606 62.2682 44.4164 62.9009 44.8459C63.1034 44.9975 62.7744 45.2754 62.5719 45.1491C62.3694 45.0228 61.7619 44.088 61.7619 44.088V43.5321C61.8885 43.2037 62.0657 43.33 62.1416 43.4816Z" fill="black"/>
<path d="M62.1416 56.4427L62.2682 56.569L62.3947 56.7964L62.6731 56.3163L62.4453 56.2405L62.1416 56.4427Z" fill="black"/>
<path d="M67.1785 55.1541L67.5075 54.9268L67.381 54.7246L67.0266 54.9268L67.1785 55.1541Z" fill="black"/>
<path d="M79.3531 64.0475L79.7328 64.2244L79.7834 64.9571C80.2896 65.4624 81.9348 65.0328 81.9348 64.9065C81.9348 64.7802 81.8589 63.3401 81.8589 63.3401L81.6564 63.138L81.6058 62.0768C81.7829 61.521 80.7958 60.7125 80.7199 60.8894C80.644 61.0662 80.0871 60.9399 80.0871 61.0915C80.0871 61.2683 79.7581 62.1021 79.9099 62.4053C80.0871 62.7084 79.7834 62.7084 79.7328 63.0116C79.6821 63.2643 79.2519 63.7696 79.3531 64.0475Z" fill="black"/>
<path d="M78.4166 62.3295C78.3407 62.6579 78.0369 62.8348 77.8597 62.7085C77.6826 62.5821 78.0622 62.9106 78.1635 63.0874C78.2394 63.2643 78.4925 63.2643 78.5938 63.0874C78.6697 62.9106 78.6444 62.5316 78.7203 62.3547C78.7963 62.2031 78.4672 62.1526 78.4166 62.3295Z" fill="black"/>
<path d="M76.7714 54.5225H76.4676V55.331H76.7714V54.5225Z" fill="black"/>
<path d="M80.8211 46.3113C80.644 46.0586 81.6564 45.6291 81.8336 46.1344C82.0108 46.6397 81.8336 46.5639 81.6564 46.5134C81.5045 46.4629 81.0742 46.6397 80.8211 46.3113Z" fill="black"/>
<path d="M81.7323 40.6013L81.6817 40.854L82.1373 40.9298L82.1879 40.6771L81.7323 40.6013Z" fill="black"/>
<path d="M80.5427 41.334L80.568 41.4098L80.8211 41.3088L80.7199 41.1066L80.6693 40.955L80.5427 41.0308L80.239 41.2077L79.9606 41.0308L79.834 41.2582L80.163 41.4604L80.239 41.5109L80.2896 41.4604L80.5427 41.334Z" fill="black"/>
<path d="M82.1373 30.95H81.5045C81.5045 30.95 81.707 31.0258 81.1249 30.47C80.5427 29.9141 80.163 30.5963 80.163 30.5963L79.4797 30.6721V31.3542L79.1506 31.4806L79.2012 31.9101L79.6568 31.8595C79.6568 31.8595 79.6568 32.3648 79.7834 32.1627C79.9099 31.9606 80.973 32.2133 80.8718 32.7186C80.8465 32.9207 81.9348 33.4765 81.8083 34.1587C82.3651 34.2345 82.2386 34.7903 82.2386 34.7903L82.9473 34.8661L83.1498 34.4366L83.3522 34.4871V34.2345L82.8966 34.1082L82.8207 32.7438L82.517 32.5417L82.5929 32.188L82.2639 32.0617L82.441 31.5058L82.1373 30.95Z" fill="black"/>
<path d="M83.985 35.2956L83.656 35.2451L82.8966 35.3714L82.4664 36.1799C82.4664 36.1799 82.6688 36.3062 82.846 36.6094C83.0232 36.9126 83.0991 38.6559 82.5929 38.9591C82.0867 39.2623 82.6435 39.0854 82.6435 39.0854L82.5676 40.0202C82.6942 40.4497 82.8966 40.2223 83.0232 40.0202C83.1498 39.8181 83.2763 39.7676 83.4535 39.5402C83.6307 39.3381 83.8838 38.9338 83.9091 38.6559C83.9597 38.3527 84.1622 37.8979 84.0356 37.7716C83.9091 37.6453 84.1622 37.0389 84.1622 37.0389C84.1622 37.0389 84.3394 36.6852 84.1622 36.3568C83.985 36.003 84.2128 35.6241 84.3394 35.4725L83.985 35.2956Z" fill="black"/>
<path d="M84.4912 37.0389L84.5165 36.7105L84.7697 36.7357L84.7443 37.0895L84.4912 37.0389Z" fill="black"/>
<path d="M84.4659 38.2264L84.2381 38.1001L84.3647 37.8474L84.5925 37.9737L84.4659 38.2264Z" fill="black"/>
<path d="M84.1116 34.8408L83.9344 34.4619C83.9344 34.4619 83.9344 34.1334 84.0103 33.9565C84.0863 33.7797 83.8331 33.6281 83.7066 33.5776C83.58 33.527 83.6307 33.1986 83.58 33.0217C83.5294 32.8449 83.251 32.7185 83.251 32.7185C83.251 32.7185 83.1751 32.0869 83.1751 31.9606C83.1751 31.8343 82.7954 31.6574 82.9219 31.5311C83.0485 31.4048 83.1244 31.2279 83.251 31.1521C83.3775 31.0763 83.1244 30.4699 83.3269 30.5963C83.5294 30.7226 83.5294 30.95 83.6307 31.1016C83.7066 31.2784 83.58 31.8595 83.8078 31.9859C84.0103 32.1122 83.7572 32.5417 84.1116 32.5417C84.4406 32.5417 84.2381 33.3502 84.2381 33.3502C84.2381 33.3502 84.1622 33.9566 84.3647 33.9818C84.5672 34.0323 84.4406 35.043 84.4406 35.043L84.1116 34.8408Z" fill="black"/>
<path d="M81.378 27.9434C81.5045 28.1203 81.7576 28.2466 81.7576 28.4235C81.7576 28.6003 81.6817 28.7266 81.9348 28.7519C82.1879 28.8024 82.3651 28.7014 82.441 28.9288C82.517 29.1309 82.517 29.4846 82.4917 29.6615C82.441 29.8383 82.5423 30.091 82.7448 30.091C82.9473 30.091 82.9979 30.1415 82.9979 30.2678C82.9979 30.3942 83.251 29.7878 83.251 29.7878C83.0485 29.6109 82.8713 29.2319 82.8713 29.2319C82.8713 29.2319 82.6688 28.6256 82.6688 28.5498C82.6688 28.474 82.3651 28.3729 82.2386 28.3477C82.112 28.2971 81.9095 27.9182 81.9095 27.9182L81.378 27.9434Z" fill="black"/>
<path d="M81.783 27.5392C81.6564 27.3623 81.5299 27.236 81.3527 27.1602C81.1755 27.0844 81.0489 26.9833 80.8971 26.9833C80.7199 26.9833 80.568 26.8065 80.644 26.6044C80.7199 26.4022 80.5174 26.3012 80.5174 26.1243C80.5174 25.9475 80.644 25.9475 80.8464 26.0738C81.0489 26.2001 81.0236 26.2506 81.1755 26.4528C81.3527 26.6549 81.4286 26.8823 81.6058 26.8317C81.783 26.7812 81.9095 27.2107 82.0614 27.0844C82.2386 26.9581 82.1879 27.3876 82.1879 27.3876L81.783 27.5392Z" fill="black"/>
<path d="M76.8726 32.3649C77.1004 32.5922 75.6071 32.5417 75.6071 32.3649C75.6071 32.188 75.7336 31.6069 76.1133 31.7332C76.4929 31.8596 76.5436 30.9753 76.5436 30.9753C76.5436 30.9753 76.2145 31.0258 76.4929 30.8489C76.7967 30.6721 76.4929 30.4194 76.3664 30.2931C76.2398 30.1668 76.1133 29.9394 76.1133 29.9394H76.6954C76.9486 29.7625 77.0245 28.954 77.0245 28.954C77.5307 29.1309 77.7838 28.7772 77.7838 28.7772C77.7838 28.7772 77.8598 29.0298 78.0369 29.2572C78.2141 29.4594 77.6066 29.5604 77.8344 29.6867C78.0369 29.8131 78.1382 30.192 78.0369 30.3184C77.961 30.4447 77.4801 30.3689 77.4801 30.192C77.4801 30.0152 77.3029 30.3942 77.4801 30.6216C77.6573 30.8237 77.2776 31.1269 77.1764 31.1269C77.1004 31.1269 76.5436 31.2027 76.9992 31.4806C77.4548 31.7332 77.961 31.6069 77.961 31.6069C77.961 31.6069 78.3407 31.5564 78.4672 31.7838C78.5938 31.9859 78.4166 32.0364 78.2141 32.0364C78.0116 32.0364 76.9992 31.9606 76.9992 31.9606C76.9992 31.9606 76.7461 32.2385 76.8726 32.3649Z" fill="black"/>
<path d="M74.1643 32.7438C74.3668 32.6933 74.873 32.668 74.9743 32.7944C75.0502 32.9207 74.6706 33.0975 74.6706 33.0975L74.1643 33.1733C74.0125 32.9712 73.9619 32.7944 74.1643 32.7438Z" fill="black"/>
<path d="M79.6062 29.1814C79.9353 29.0046 80.6693 29.0046 80.6187 28.7519C80.568 28.4993 81.0489 28.4235 81.0489 28.4235L81.1755 28.9288L81.5552 29.1814L81.6058 29.6615C81.6058 29.6615 81.7323 29.5857 81.2767 29.712C80.8211 29.8383 81.0996 30.0404 81.0996 30.0404L80.0871 30.091L79.9606 29.6615L79.6062 29.1814Z" fill="black"/>
<path d="M77.961 26.857C78.2141 26.857 77.8851 27.8424 78.5431 27.7413C79.2265 27.6655 78.5938 28.0445 79.1 28.0698C79.6062 28.1203 79.4797 27.6908 79.6568 27.3876C79.834 27.0844 79.7328 26.9076 79.4543 26.8318C79.1506 26.756 79.1506 26.756 79.0747 26.4023C78.9987 26.0738 78.6444 25.9727 78.6444 25.9727L78.5178 25.4674L77.961 25.7959L77.4041 26.5286C77.4041 27.1349 77.7079 26.857 77.961 26.857Z" fill="black"/>
<path d="M79.0747 30.4699L79.2012 30.2173L79.429 30.3183L79.3025 30.5963L79.0747 30.4699Z" fill="black"/>
<path d="M78.8975 30.0657H78.6444V30.3689H78.8975V30.0657Z" fill="black"/>
<path d="M78.8469 24.381L78.8975 24.76L78.6444 24.7853L78.5938 24.4063L78.8469 24.381Z" fill="black"/>
<path d="M78.3913 28.3477H78.1382V28.5498H78.3913V28.3477Z" fill="black"/>
<path d="M77.4548 28.3477L77.4295 28.095L77.8597 28.0698L77.8851 28.3224L77.4548 28.3477Z" fill="black"/>
<path d="M73.9872 32.4659L73.7594 32.3648L73.8859 32.0616L74.1137 32.1627L73.9872 32.4659Z" fill="black"/>
<path d="M72.671 31.6827L72.6457 31.43L73.076 31.3795L73.1013 31.6321L72.671 31.6827Z" fill="black"/>
<path d="M65.3814 31.6069L64.4449 31.6321L64.4702 31.8848L65.3814 31.8595V31.6069Z" fill="black"/>
<path d="M63.8374 31.9606L63.7362 31.5816L63.9893 31.5311L64.0652 31.9101L63.8374 31.9606Z" fill="black"/>
<path d="M63.6603 32.2385L63.5843 31.9859L63.7109 31.9606L63.7868 32.188L63.6603 32.2385Z" fill="black"/>
<path d="M65.7611 31.5058L65.7105 31.809L66.1661 31.8595C66.1661 31.8595 66.3685 32.0364 66.3685 32.1627C66.3685 32.289 66.6723 32.4154 66.8241 32.4154C67.0013 32.4154 67.4569 32.0617 67.4569 32.0617C67.4569 32.0617 67.6594 31.4553 67.5075 31.5058C67.3304 31.5563 67.0013 31.809 66.9507 31.5563C66.9001 31.3037 66.3938 31.43 66.3938 31.43L65.7611 31.5058Z" fill="black"/>
<path d="M67.8619 31.0511C67.8619 31.1774 67.786 31.3543 68.0391 31.4048C68.2922 31.4553 68.7478 31.2279 68.7984 31.4806C68.849 31.7332 68.849 31.9101 69.1781 32.0364C69.5071 32.1627 69.7349 32.2133 69.988 32.2133C70.2411 32.2133 70.798 32.1375 70.798 32.1375C70.798 32.1375 71.4054 32.2385 71.5067 32.3396C71.9623 32.8196 72.266 32.946 72.3926 32.7186C72.5191 32.5165 72.3419 32.0364 72.3166 31.8596C72.266 31.6827 71.6839 30.8742 71.4814 31.0511C71.2789 31.2279 71.2283 31.0511 70.8486 31.1774C70.4689 31.3037 69.659 31.2279 69.6337 31.0511C69.583 30.8742 69.0009 30.7984 69.0009 30.6216C69.0009 30.4447 68.5706 30.2426 68.6212 30.4952C68.6718 30.7479 68.3175 30.8742 68.2416 30.7984C68.115 30.6974 67.8619 31.0511 67.8619 31.0511Z" fill="black"/>
<path d="M77.5307 25.5937L77.8344 24.6589C77.4042 24.5831 77.5054 24.1031 77.5054 24.1031C77.4548 23.7241 76.8726 23.2946 76.6701 23.4209C76.4676 23.5472 76.5436 22.5366 76.5436 22.5366C76.5436 22.5366 76.9232 22.284 77.1004 22.4103C77.2776 22.5366 75.6577 20.288 75.3286 20.4901C74.9996 20.6923 74.2403 20.288 74.2656 19.8838C74.3162 19.5048 72.7469 18.2163 72.7469 18.2163C72.7469 18.2163 72.2407 17.8878 72.1648 18.1405C72.0888 18.3931 71.9116 18.57 72.1648 18.6963C72.4179 18.8226 72.3672 18.4942 72.671 18.7721C72.9747 19.0753 73.5062 19.4543 73.3038 19.7069C73.1013 19.9596 72.8482 20.0606 72.8482 20.0606L73.1519 20.4144H73.6075L73.6834 21.147C73.6834 21.147 74.1896 21.3997 74.3162 21.7029C74.4428 22.0061 74.4428 22.1829 74.3162 22.3345C74.1896 22.5114 73.9365 22.8146 73.9872 23.0925C74.0378 23.3957 74.3668 23.522 74.3668 23.522L74.6959 23.5725L74.949 23.6988V24.2547C75.278 24.1789 75.8349 24.6337 75.7842 24.9368C75.7336 25.24 75.8602 25.0632 76.2905 25.3663C76.7208 25.6695 76.5942 25.7201 76.8726 25.9222C77.151 26.099 77.4041 25.9727 77.5307 25.5937Z" fill="black"/>
<path d="M70.5955 19.7827C70.5449 19.6059 70.4689 19.0248 70.722 19.05C70.9752 19.1006 70.798 19.05 71.1017 19.1764C71.4054 19.3027 71.4307 18.9742 71.4307 18.9742H71.8864L72.4685 19.4543L72.3926 19.8333L71.9623 19.8838C71.7598 19.5553 71.3295 19.6817 71.4054 19.9596C71.4814 20.2628 71.2029 20.8186 71.0258 20.8439C70.8486 20.8944 70.3171 20.8944 70.3424 20.6418C70.4183 20.3891 70.5955 19.7827 70.5955 19.7827Z" fill="black"/>
<path d="M70.2664 18.6458V18.3173C70.2664 18.3173 70.2158 17.9889 70.0133 17.9889C69.8108 17.9889 69.4312 17.7362 69.5071 17.5594C69.583 17.3825 68.7984 17.2057 68.7984 17.2057C68.7984 17.2057 68.0897 16.5235 68.3428 16.5993C68.5959 16.6751 68.4694 16.2961 68.4694 16.2961C68.4694 16.2961 67.9631 16.3719 67.8366 16.3466C67.71 16.2961 67.7606 15.9171 67.7606 15.9171C67.7606 15.9171 67.2544 15.7908 67.2544 15.9171C67.2544 16.0435 67.4316 16.0435 67.5075 16.2961C67.5835 16.5488 67.5582 16.9783 67.9378 17.0541C68.3175 17.1299 68.3934 17.2309 68.444 17.4078C68.4947 17.5846 68.9503 17.6099 68.9503 17.6099L69.2793 17.7868L70.2664 18.6458Z" fill="black"/>
<path d="M65.7105 14.3002L65.5839 13.9465L65.2548 13.8707V14.2496L65.7105 14.3002Z" fill="black"/>
<path d="M65.5839 12.5063C65.1536 12.1779 66.166 12.759 66.166 12.759C66.4951 12.759 66.7229 13.0117 66.7229 13.138C66.7229 13.2643 67.1785 13.2138 67.1785 13.2138L67.2291 12.9106L66.9001 12.4811L66.5963 12.279C66.5963 12.279 66.1407 12.2284 66.1407 12.1021C66.1407 12.001 65.7611 12.6327 65.5839 12.5063Z" fill="black"/>
<path d="M73.3291 12.759C73.2025 13.138 73.1519 13.6433 72.9494 13.6433C72.7469 13.6433 72.8228 14.1991 72.8228 14.1991C72.8228 14.1991 73.3797 14.1991 73.5316 14.2496C73.7087 14.3002 73.7087 14.7297 73.7087 14.7297C74.3415 14.6791 74.5946 15.5382 74.5187 15.7656C74.4428 15.9677 74.7718 15.9677 74.7718 15.9677C74.7718 15.9677 74.7718 16.6498 74.6959 16.8267C74.6199 17.0035 75.2527 17.1299 75.4046 17.3825C75.5817 17.6352 75.3286 18.4942 75.2021 18.5447C75.0755 18.5953 75.5311 18.7216 75.5058 18.9237C75.4552 19.1258 75.6324 18.9237 75.683 19.2774C75.7336 19.6059 75.8095 20.3386 75.8095 20.3386L76.3917 20.3891C76.4676 19.8333 77.556 19.808 77.7332 19.8838C78.4419 20.1364 78.9987 21.2481 78.9987 21.5008C78.9987 21.7534 78.5431 21.804 78.5431 21.804L78.6191 23.042C79.3278 23.2441 79.9352 24.28 79.834 24.4568C79.7581 24.6337 80.3402 24.5831 80.3402 24.5831C80.4162 23.8252 81.1502 24.0778 81.1755 24.3305C81.2261 24.5831 81.3527 25.139 81.3527 25.139L81.5551 25.518L81.8589 25.8211L82.3145 25.7706L82.441 26.0233L82.9979 26.0991C82.9979 26.0991 83.4535 26.6044 83.5041 26.7307C83.5547 26.857 84.1875 26.8065 84.3394 26.857C84.5165 26.9075 84.7697 27.0339 84.795 27.236C84.8456 27.4381 85.0987 27.7918 85.0987 27.7918C85.0987 27.7918 85.6049 27.9182 85.6555 28.095C85.7062 28.2719 85.9086 28.6508 85.9086 28.6508L86.3389 29.0046L86.3896 29.3835L86.8452 29.4341L86.9717 29.9394L87.731 29.8888L88.1613 29.5857C88.7182 29.2825 89.0978 28.9035 89.1231 28.7266C89.1738 28.5498 89.2497 27.9182 89.68 28.0445C90.1103 28.1708 89.8065 27.1097 89.8065 27.1097C89.8065 27.1097 89.2244 26.6802 89.2497 26.478C89.3003 26.2759 88.6675 25.8464 88.6929 25.6695C88.7435 25.4927 88.136 25.1642 88.1866 24.9874C88.2373 24.8105 87.8829 24.3557 87.8829 24.3557L87.2501 23.7494L87.1742 23.3704L86.668 23.3199L85.6555 22.0819L85.7062 21.7282L85.4024 21.6776V21.1976L85.0987 21.0207L84.6431 20.9702L83.7066 19.9596L83.6307 19.4795H83.1751L83.251 18.5953C83.5547 18.2163 83.3775 17.4836 83.3775 17.4836C83.3775 17.4836 82.7954 17.7868 82.4917 17.6604C82.1879 17.5341 82.6182 17.2309 82.6182 17.2309V16.9025L82.3651 16.6498C82.3651 16.6498 81.6564 16.7256 81.6058 16.5993C81.5552 16.473 81.4286 15.9171 81.4286 15.9171L81.378 15.1844L81.0742 15.0581L81.0236 14.8055L80.568 14.856V14.3507L80.3149 14.2749L80.0618 14.1486L80.0112 13.6433L79.0747 13.5927L78.7709 13.1632L78.4419 12.6579L77.3788 12.5821L77.1257 12.3295L76.6954 12.2537L76.3917 12.1273L76.2651 12.3295L75.4552 12.38L75.4046 12.6327C75.0502 12.8095 73.3797 12.6327 73.3291 12.759Z" fill="black"/>
<path d="M77.7585 11.6473C77.6826 11.3189 78.5938 11.0157 78.8216 11.2683C79.024 11.521 79.6315 11.5715 79.7074 12.8348C79.7328 13.2895 78.9481 12.3547 78.9481 12.3547L78.3153 12.1526C77.961 12.0768 77.7838 11.8747 77.7585 11.6473Z" fill="black"/>
<path d="M65.4067 12.1779L65.1789 12.0768L65.3561 11.6726L65.5839 11.7989L65.4067 12.1779Z" fill="black"/>
<path d="M63.23 7.98384L62.6731 7.428V6.94796L62.496 6.77111L62.3188 6.16474L61.7619 5.98788L61.2051 6.19001L60.6229 6.56899L59.9902 6.64478L59.6611 7.02376L61.0026 7.15009L61.2557 7.5796L62.2175 7.65539L62.8503 8.28702C63.4325 8.53968 63.559 8.28702 63.23 7.98384Z" fill="black"/>
<path d="M63.154 5.88682C63.0528 5.50784 62.5213 6.36686 63.0781 6.51845C63.635 6.69531 64.1665 6.51845 64.1665 6.51845L64.293 6.2658L66.3938 6.31633C66.571 6.13947 66.647 5.88682 66.647 5.88682C66.647 5.88682 67.1532 5.70996 67.3557 5.81102C67.5581 5.88682 67.4063 5.20466 67.1785 5.30572C66.976 5.38151 66.5457 5.35625 66.5457 5.35625H65.7864C65.7358 5.05307 65.0777 5.17939 65.0271 5.35625C65.0017 5.50784 64.7486 5.55837 64.7486 5.55837L63.7868 5.63417C63.6856 5.88682 63.2047 6.06368 63.154 5.88682Z" fill="black"/>
<path d="M58.9777 13.0874C59.6358 13.2896 59.8636 13.138 59.9142 12.9611C59.9648 12.7842 59.9902 12.759 60.2433 12.7085C60.4964 12.6579 60.1926 12.1526 59.9395 12.2031C59.6864 12.2537 59.4333 12.1274 59.3827 11.9C59.3321 11.6978 58.9271 11.142 58.8765 11.5715C58.8259 12.001 58.5727 12.001 58.6234 12.3042C58.6993 12.5821 58.8259 13.0369 58.9777 13.0874Z" fill="black"/>
<path d="M54.1433 13.5675C54.118 13.4159 54.9786 13.3906 55.1051 13.5169C55.2317 13.6433 55.1558 13.8707 55.5354 13.8707C55.9151 13.8707 55.7379 14.1233 55.7126 14.2496C55.662 14.376 55.257 14.3254 55.2064 14.1991C55.1558 14.0728 54.523 14.0223 54.523 14.0223C54.523 14.0223 54.1939 13.7696 54.1433 13.5675Z" fill="black"/>
<path d="M68.0138 4.95202L68.115 5.05308L68.1909 4.97728L68.6212 4.62357L68.444 4.42145L68.115 4.69937L67.9125 4.47198L67.7353 4.6741L68.0138 4.95202Z" fill="black"/>
<path d="M66.1407 3.96666L66.1914 3.91613L66.6723 3.61295L66.5204 3.41083L66.1407 3.66348L65.8623 3.48662L65.7358 3.71401L66.0648 3.91613L66.1407 3.96666Z" fill="black"/>
<path d="M64.6221 12.6579L64.9005 13.0874L65.103 12.9358L64.8246 12.4811L64.7739 12.4305H64.7233L64.293 12.38L64.2677 12.6327L64.6221 12.6579Z" fill="black"/>
<path d="M50.8529 24.3052L50.9035 24.7852H51.5363C51.7894 24.7852 51.3338 24.4821 51.3338 24.4821C51.3338 24.4821 50.8276 24.5326 50.8529 24.3052Z" fill="black"/>
<path d="M51.6628 24.3305L51.8147 24.1284L52.0678 24.3305L51.9159 24.5326L51.6628 24.3305Z" fill="black"/>
<path d="M43.9936 16.3467L44.1708 16.1698L44.4239 16.4225L44.2467 16.5993L43.9936 16.3467Z" fill="black"/>
<path d="M55.8645 71.4502L56.0416 71.6271L56.2441 71.425L56.3707 71.2986L56.2188 71.1976L55.7885 70.9955L55.6873 71.2228L55.9404 71.3492L55.8645 71.4502Z" fill="black"/>
<path d="M52.5487 68.3679L52.8525 68.57L53.0043 68.3679L52.8271 68.2416L52.9537 68.1405L52.8018 67.9384L52.5487 68.1658L52.4222 68.2668L52.5487 68.3679Z" fill="black"/>
<path d="M84.2634 60.0556C84.2128 59.8282 83.9597 59.7524 83.9344 59.7524L83.8585 60.0051C83.8838 60.0051 83.9091 60.0303 83.9344 60.0556L83.985 60.283C83.9597 60.3082 83.9344 60.3335 83.9344 60.3588L84.1116 60.5356C84.2381 60.3335 84.2887 60.2072 84.2634 60.0556Z" fill="black"/>
<path d="M84.6431 59.2471L84.2381 59.2218L84.2634 58.8429L84.6684 58.8934L84.6431 59.2471Z" fill="black"/>
<path d="M94.3878 55.9374C94.565 55.8363 94.7928 55.6089 94.7675 56.089C94.7422 56.569 94.5397 56.4174 94.3878 56.569C94.236 56.7206 94.1347 56.089 94.3878 55.9374Z" fill="black"/>
<path d="M96.5393 54.1182V54.0677C96.5393 53.9919 96.514 53.8909 96.4633 53.7898L96.2355 53.9161C96.2609 53.9666 96.2609 54.0424 96.2862 54.093C96.2862 54.1688 96.3115 54.2446 96.3621 54.2951C96.4127 54.3204 96.4633 54.3456 96.5393 54.3204L96.4887 54.0677C96.4887 54.093 96.514 54.093 96.5393 54.1182Z" fill="black"/>
<path d="M95.9824 54.3204C96.0584 54.573 96.1343 54.8257 96.1343 54.8509L96.3621 54.7499C96.3621 54.7499 96.2609 54.4972 96.2102 54.2446L95.9824 54.3204Z" fill="black"/>
<path d="M95.0459 55.331L94.7928 55.3057C94.7675 55.5079 94.8181 55.7605 95.0206 55.7858L95.0712 55.5331C95.0712 55.5331 95.0459 55.4321 95.0459 55.331Z" fill="black"/>
<path d="M93.9576 50.2527C93.9322 50.1769 93.9069 50.1011 93.831 50.0758C93.6538 50 93.3248 50.1264 93.1729 50.2274L93.3248 50.4295C93.4766 50.3285 93.7044 50.278 93.7298 50.3032C93.7298 50.3032 93.7298 50.3032 93.7298 50.278L93.9576 50.2527Z" fill="black"/>
<path d="M82.2892 36.6347C82.112 36.8115 81.7323 36.8873 81.7323 36.8873L81.6058 37.3674L81.4033 37.5442C81.4033 37.5442 81.4539 37.6706 81.4033 37.9738C81.3527 38.2769 80.973 38.4538 80.973 38.4538L80.7958 38.6559C80.7958 38.6559 79.7834 38.7064 79.6568 38.6559C79.2772 38.4791 79.5303 37.9738 79.7834 38.0243C80.0365 38.0748 79.7328 37.2916 79.7328 37.2916L80.0618 37.2411C80.0618 37.2411 80.1124 36.4831 80.239 36.4831C80.3655 36.4831 80.1883 36.2304 80.0365 36.1041C79.8593 35.9778 79.6568 35.5483 79.4796 35.5988C79.3025 35.6493 78.6444 35.5988 78.6444 35.5988L78.5178 35.8515L78.0622 35.9273C78.0622 35.9273 78.1128 36.2557 78.0116 36.3568C77.7585 36.66 76.7967 37.2916 77.2017 36.2304L77.3282 35.9778V35.5988L76.5689 35.5483C76.5689 35.5483 76.1892 35.422 76.1892 35.2451C76.1892 35.0682 76.1386 34.8661 76.1386 34.8661L75.2527 33.8808L74.1896 33.7545L74.1137 33.5523L73.4809 33.4765C72.7216 33.0976 72.0382 33.426 72.1648 34.0829C72.2913 34.7145 72.4938 34.9672 72.0888 34.9672C71.6585 34.9672 71.5826 34.6387 71.5826 34.6387C71.5826 34.6387 71.2536 34.5124 71.2536 34.6893C71.2536 34.8661 71.127 35.1946 71.2536 35.3714C71.3801 35.5483 71.0764 35.8009 70.9498 35.6746C70.8233 35.5483 70.4942 35.1693 70.5702 35.043C70.6461 34.9167 69.988 34.1082 70.6461 33.9818C71.3295 33.8555 70.5955 33.4765 70.8486 33.3755L71.1776 33.1986H71.5067L71.7092 33.0218L71.1523 32.946L70.8233 32.8954L70.1905 32.8449C69.5577 33.2744 69.4312 33.7797 69.4312 33.7797C69.1021 34.4113 68.2922 33.5271 68.5959 33.1733C68.8996 32.8196 67.6594 33.1228 67.4569 33.2997C67.2544 33.4765 66.6216 33.3755 66.6216 33.3755C66.4951 33.7545 65.9129 33.3249 66.0648 33.0723C66.242 32.8196 66.242 32.6428 66.242 32.6428L66.0395 32.5922L65.7864 33.0723C65.2042 33.0723 65.0271 33.4007 65.1536 33.6281C65.2802 33.8302 64.9764 33.5776 64.9005 33.8808C64.8246 34.184 64.9511 34.184 65.2042 34.3103C65.4573 34.4366 65.0777 34.4366 65.2549 34.6387C65.432 34.8409 65.9382 34.6387 65.6345 34.9419C65.3308 35.2451 64.7486 35.1188 64.7486 35.1188C64.698 35.4978 63.9134 35.422 63.8121 35.2956C63.7362 35.1693 63.1034 34.4113 63.1034 34.4113L62.2935 34.3608C62.2175 33.7544 62.6731 34.0576 62.8503 33.6029C63.0275 33.1228 63.1034 32.3649 63.1034 32.3649C63.1034 32.3649 62.42 32.3143 62.3947 32.5417C62.3441 32.7438 61.9391 32.8954 61.9391 32.8954C61.9391 32.8954 61.6101 33.0218 61.7366 33.1986C61.8632 33.3755 61.4835 33.4513 61.4835 33.4513C61.4835 33.4513 61.5594 33.7292 61.4329 33.8302C61.1038 34.184 60.2433 33.8808 60.1167 33.7545L59.6105 33.5523L59.1043 33.2239L58.5221 33.4765L58.3449 33.6534H57.7122L57.6615 34.1587L58.8005 34.285L58.8765 35.3462L58.4209 35.1946H58.1171L57.9906 34.9419L57.7375 34.8914V35.8262L57.9906 36.0283L58.1931 36.2304L58.6234 36.281L58.6993 36.7863L59.7624 36.8368L59.8889 37.0389L60.5217 37.0895L61.7366 38.3275L61.6607 38.7064L61.4582 38.8328C61.5341 39.136 60.9014 38.9591 60.9014 38.9591V39.2117L61.2051 39.2623L61.5088 39.4391L61.9391 38.7064C62.3947 38.4033 62.6225 38.8328 62.6478 39.0854C62.6984 39.3381 62.4453 39.2875 62.4453 39.2875V39.8939L62.6984 39.9697C63.1287 40.475 62.5213 40.7782 62.5213 40.7782L62.3947 41.2077C62.2682 41.5867 61.8126 41.5109 61.8126 41.5109L61.6354 41.7635L61.1292 41.8899L62.1163 42.0162C62.2175 41.6625 62.4706 41.5867 62.5972 41.7635C62.7237 41.9404 62.7237 42.2436 62.7237 42.2436L62.9769 42.2941L62.9262 42.7742L63.1793 42.85V44.2143L63.4831 44.5427C63.9893 44.3406 63.9893 44.6691 63.7362 44.8459C63.4831 45.0228 63.6603 45.7807 63.6603 45.7807L63.4578 45.9828V46.3366L63.2047 46.5134V46.9935C62.7744 46.7913 62.2682 46.8671 62.1416 46.9935C61.7619 46.7408 60.952 46.8166 60.952 47.044C61.2051 47.3724 60.6482 47.4735 60.6482 47.4735L60.3445 47.8019C60.547 48.2315 60.142 48.282 60.142 48.282V49.0905L59.6358 49.5705L59.6864 50.6822C59.6864 50.9854 60.3192 51.0106 60.4458 50.859C60.5723 50.6822 61.0785 51.2128 61.0785 51.2128H61.4582L61.5341 50.4548L61.281 50.3285V49.0905L61.7113 48.6104C62.2175 48.4336 62.0404 49.7221 62.0404 49.8484C62.091 50.3285 62.2935 50.2779 62.496 50.1769C62.9262 50 62.5719 50.6569 62.2428 50.6064C61.9138 50.5559 62.1163 51.0359 62.1163 51.0359L62.3188 51.1117L61.9391 51.4149L61.6101 51.7939L61.1798 51.6675L60.6736 51.617L60.4964 51.3138L60.1926 51.2633L60.142 51.8697L59.9395 52.1223L59.4333 52.6276C60.1167 52.6276 59.3574 53.1077 59.1802 53.1077C59.5599 53.234 59.1296 53.613 58.1678 53.3098V53.613L57.8387 53.6635L58.1425 53.9919L58.4715 54.0425L58.3449 54.7752C58.3449 55.331 56.9528 54.952 56.8263 54.8257L56.7757 55.5837L56.5226 55.6342L56.5732 56.1395L56.5226 56.8722L56.9781 56.7964V57.0996L58.1171 57.1501L59.7624 55.4068L60.7242 55.2047C60.8001 54.7752 61.2304 55.2805 61.2304 55.2805C61.6607 55.2299 61.7366 55.5331 61.7366 55.5331L62.2935 55.6089C62.7491 55.7352 62.4706 55.7858 62.496 55.9626C62.5466 56.2153 62.7491 56.1395 62.7491 56.1395L62.825 55.5837L63.0781 55.6342L62.825 55.331L62.3694 55.1289L61.8632 54.9268C61.5341 54.4467 61.9391 54.5478 62.2935 54.5983H62.8503C62.8503 54.5983 63.4831 55.4573 63.4831 55.6594C63.4831 55.8616 63.7868 55.9121 63.7868 55.9121L64.1665 55.8616L64.293 56.1648H64.6727L64.7993 56.4174H65.5586L65.6092 56.0384L64.9005 55.9121L64.8499 55.4826L64.3437 55.3563C64.1665 54.6236 64.4702 54.4214 64.6727 54.7499L64.9258 54.8004L64.8499 54.1688L65.1536 54.093L65.0777 53.2087L64.8246 53.1329V52.8297L65.8876 52.8803C65.8117 52.3244 65.9383 52.0718 65.9383 52.0718H66.242L66.2926 52.2739L67.5835 52.4002L68.4947 51.3644C68.444 51.2886 68.5959 51.238 68.4947 51.137C68.3681 51.0106 68.1909 51.137 67.9884 51.0106C67.7859 50.8843 67.9884 50.1516 67.9378 50C67.8872 49.8232 68.6465 49.5705 68.52 49.9495C68.3934 50.3285 68.52 50.5053 68.52 50.5053C69.0768 50 69.5324 50.5559 69.4818 50.6822C69.4312 50.8085 69.7855 50.9348 69.988 50.8085C70.1905 50.6822 70.4436 51.1875 70.3677 51.4401C70.2917 51.6928 69.5324 51.6423 69.4818 51.3896C69.4312 51.137 69.3046 51.2128 69.2287 51.3391C69.1528 51.4654 68.7731 51.5412 68.5453 51.4149C68.4947 51.3896 68.4947 51.3643 68.4694 51.3391L67.5582 52.375H67.6088C68.115 52.6781 67.8619 53.0571 67.6847 53.1329C67.5075 53.2087 67.2291 53.2087 67.2291 53.2087L67.1532 53.3856L66.0648 53.4614L65.9889 53.8909C65.432 53.8151 65.2295 54.3962 65.3561 54.6994C65.4826 55.0026 65.3561 55.2552 65.3561 55.2552L65.8117 55.4573L66.3938 55.2805C66.4698 54.851 66.8494 54.7752 67.2038 54.5225C67.5328 54.2699 68.0897 55.0026 67.9125 55.331C67.7353 55.6594 67.7353 55.811 67.7353 55.811L67.786 56.19L67.3557 56.3669L67.0266 56.5437L66.976 56.7459H65.837L65.6345 56.948L65.0777 56.9985L64.9005 57.2512L64.5208 57.3017C64.5208 57.3017 63.8881 57.6049 64.1412 57.9333C64.3943 58.287 63.0781 58.2365 62.7997 57.7565C62.7238 58.186 62.2428 57.807 62.2428 57.807L61.7872 57.6807L61.7366 57.049C61.6607 56.6195 60.8507 56.6195 60.9014 56.9227C60.952 57.2259 59.3827 57.049 59.3827 57.049L58.8765 57.3017L58.4209 57.5796L58.3703 57.7817L57.6109 57.8575L57.2819 58.0344L57.1553 57.7817H56.8263L56.4972 58.2618C55.6114 58.3123 54.7761 58.8176 54.852 59.0197C54.928 59.2219 54.523 59.4492 54.523 59.4492L54.1433 59.5756L53.8902 59.9545L53.384 60.1314L53.3081 61.0157L53.0549 61.1925V61.5715L52.7512 61.6473V61.8494L52.3209 61.9L52.574 62.5316L52.9031 62.7085C53.4852 62.7843 53.2321 63.5169 53.2321 63.5169L53.5612 63.5675L53.7383 64.0475L54.0674 64.7297C54.1939 65.235 54.5736 65.1087 54.7508 65.0834C54.928 65.0329 55.0798 65.5887 55.0798 65.5887L56.7503 65.6392C56.7503 65.6392 56.6744 65.8161 56.9528 65.8919C57.2566 65.9677 59.1802 66.0687 59.2561 65.9424C59.1802 65.5634 60.3192 65.4624 60.7748 65.8161C61.2304 66.1445 61.8632 65.9424 61.8632 65.9424L62.496 66.7004L62.9262 67.6352L63.6349 67.8373L64.1412 67.9636L64.3183 68.6963L64.698 68.7469L64.8246 69.2269C65.2802 69.5554 64.698 70.288 64.698 70.288V71.2229L65.0271 71.3997L64.9764 71.7534L65.5333 72.3093L66.166 72.3598L67.7606 74.0526L69.0262 74.4316L69.2287 75.1137L69.5577 75.0632L69.8108 74.8611L70.8233 74.8105L71.3295 74.3305L71.8863 74.2547L76.5689 70.288L76.1386 70.0354V69.1006C76.8979 68.5447 76.9485 67.5594 76.2145 67.4836C75.683 67.4078 75.9108 66.852 76.417 66.7509L76.7207 66.6246V66.2456L77.6826 65.3613V64.6792L75.5817 62.9359C74.6452 62.6074 75.5817 60.5609 76.2145 60.5862C76.8473 60.6367 76.1639 57.428 76.1639 57.428L75.8349 57.2512L75.9108 56.2153H75.4552L74.6959 57.2006L74.4934 57.8828C74.4174 58.7671 71.8104 58.6155 71.6838 58.4892C71.5573 58.3628 70.6714 57.9839 70.6714 57.9839C70.6714 57.9839 69.988 57.428 69.8615 57.6049C69.7349 57.7817 69.1527 57.4028 69.1527 57.5291C69.1527 57.6554 68.5959 57.2259 68.5959 57.2259L67.7606 56.9227L68.3934 56.7964L68.2669 56.2911L69.3552 56.8469C69.4818 57.0238 70.0386 56.9732 70.0386 56.9732L70.2158 57.1754C70.2158 57.1754 70.5448 57.1248 70.7726 57.3775C70.9751 57.6301 72.0888 57.428 72.0888 57.428L72.3926 57.6807L72.8482 57.8575L74.1643 57.9081L74.2149 57.0996L74.4681 56.8469L74.4174 56.3416L74.7212 56.089V55.6594L74.9743 55.5837L75.0249 54.6488L75.2274 54.5983V52.5518L74.5946 51.9455C74.544 52.1476 73.8859 52.1476 73.8859 52.1476C73.8859 52.1476 73.7087 52.4508 73.5822 52.4508C73.4556 52.4508 73.7594 52.8297 73.6581 53.0824C73.5822 53.335 73.2278 53.335 73.2278 53.335L72.595 53.5119L72.4179 53.714H71.7345L71.6585 53.1582L72.4179 52.9561L72.8482 52.7539L73.0506 52.3244C73.1013 51.8949 73.6075 51.9455 73.6075 51.9455C73.6075 51.9455 74.5693 51.137 74.6199 50.758C74.6705 50.379 74.9996 49.3179 75.5817 49.3179H76.6701C77.1004 49.141 76.9738 48.5852 76.9738 48.5852L77.5307 48.5094L77.6066 48.8126C77.6066 48.8126 78.366 48.8884 78.4419 48.762C78.5178 48.6357 78.695 48.3325 78.8975 48.4588C79.1 48.5852 79.7834 48.1557 79.7834 48.1557C79.834 47.8525 80.8717 47.9788 80.8717 47.9788L80.9983 47.5998C80.9983 47.5998 80.2896 46.6145 80.163 46.6145C80.0365 46.6145 79.3531 46.0081 79.2772 46.2355C78.5938 46.0586 78.6444 45.1238 78.6444 45.1238L78.3913 44.5175C78.3913 44.1637 77.7585 43.4563 77.6319 43.5321C76.9992 43.0521 77.4548 42.5215 77.6319 42.471C77.8091 42.4204 78.2141 41.8393 78.2141 41.8393L78.4166 41.233L79.1253 41.0308L79.2012 40.475L78.8216 40.4245C78.8216 40.4245 79.2518 39.6665 79.4543 39.6665C79.6568 39.6665 81.0489 39.6665 81.1755 39.5907C81.302 39.5149 81.5551 38.8328 81.5551 38.7064C81.5551 38.5801 81.8842 38.5296 82.0107 38.5043C82.1373 38.4538 82.441 38.1253 82.517 37.9485C82.7448 37.519 82.4663 36.4578 82.2892 36.6347Z" fill="black"/>
<path d="M58.9777 51.996C59.0283 51.9454 59.1043 52.1981 59.2308 52.1476C59.3574 52.1223 59.408 52.375 59.2815 52.375C59.1549 52.375 59.1549 52.5265 59.1549 52.6023C59.1549 52.6781 59.1549 52.8297 59.0537 52.9308C58.9524 53.0319 58.8765 52.9561 58.7499 52.9055C58.6234 52.8297 58.5727 52.8297 58.3956 52.8297C58.2437 52.8297 58.3703 53.0824 58.3703 53.0824C58.3703 53.0824 57.7122 53.0571 57.8387 52.9561C57.9653 52.855 58.0918 52.8297 57.9906 52.7539C57.8893 52.6781 57.9906 52.6276 57.9906 52.5013C57.9906 52.375 58.2943 52.4255 58.2184 52.3497C58.1171 52.2486 58.2184 51.8949 58.3703 52.097L58.4715 51.8697C58.3703 51.7686 58.4462 51.7433 58.2437 51.6675C58.0665 51.5917 58.2184 51.2128 58.2184 51.2128L58.2437 50.9601C58.2943 50.6317 58.9271 50.6064 58.9777 50.8843C59.003 51.1622 58.9777 51.3643 58.9777 51.3643L59.1549 51.4401C59.1549 51.4401 59.1296 51.6423 58.9777 51.6423C58.8259 51.6423 58.9777 51.7433 58.8765 51.8444L58.9777 51.996Z" fill="black"/>
<path d="M56.9022 52.3244C57.0035 52.1223 57.2059 51.3138 57.4591 51.5665C57.7122 51.8191 57.864 51.5665 57.864 51.5665C57.864 51.5665 57.9906 51.6928 57.9147 51.9455C57.864 52.1981 57.7881 52.4508 57.6362 52.5013C57.4844 52.5266 57.3578 52.6276 57.1553 52.6529C57.0035 52.6781 56.9022 52.3244 56.9022 52.3244Z" fill="black"/>
</g>
<defs>
<clipPath id="clip0_2_10">
<rect width="118.018" height="100.556" fill="white"/>
</clipPath>
</defs>
</svg>
